<mxfile host="Electron" agent="Mozilla/5.0 (Windows NT 10.0; Win64; x64) AppleWebKit/537.36 (KHTML, like Gecko) draw.io/28.1.2 Chrome/138.0.7204.243 Electron/37.4.0 Safari/537.36" version="28.1.2">
  <diagram name="第 1 页" id="TWYudSQOriCT406iQ_FH">
    <mxGraphModel dx="1229" dy="2016" grid="1" gridSize="10" guides="1" tooltips="1" connect="1" arrows="1" fold="1" page="1" pageScale="1" pageWidth="827" pageHeight="1169" math="0" shadow="0">
      <root>
        <mxCell id="0" />
        <mxCell id="1" parent="0" />
        <mxCell id="xUOIjGdvXkta8MsZSQq9-2" value="MQTTConfig" style="rounded=0;whiteSpace=wrap;html=1;" vertex="1" parent="1">
          <mxGeometry x="639" y="30" width="120" height="60" as="geometry" />
        </mxCell>
        <mxCell id="xUOIjGdvXkta8MsZSQq9-3" value="AppConfig" style="rounded=0;whiteSpace=wrap;html=1;" vertex="1" parent="1">
          <mxGeometry x="805" y="30" width="120" height="60" as="geometry" />
        </mxCell>
        <mxCell id="xUOIjGdvXkta8MsZSQq9-4" value="DBConfig" style="rounded=0;whiteSpace=wrap;html=1;" vertex="1" parent="1">
          <mxGeometry x="975" y="30" width="120" height="60" as="geometry" />
        </mxCell>
        <mxCell id="xUOIjGdvXkta8MsZSQq9-5" value="&lt;h2&gt;基础配置&lt;/h2&gt;" style="rounded=0;whiteSpace=wrap;html=1;opacity=30;" vertex="1" parent="1">
          <mxGeometry x="620" y="-70" width="490" height="170" as="geometry" />
        </mxCell>
        <mxCell id="xUOIjGdvXkta8MsZSQq9-7" value="Device抽象基类&lt;div&gt;模板方法模式&lt;/div&gt;" style="rounded=0;whiteSpace=wrap;html=1;" vertex="1" parent="1">
          <mxGeometry x="320" y="230" width="120" height="60" as="geometry" />
        </mxCell>
        <mxCell id="xUOIjGdvXkta8MsZSQq9-8" value="MotorDevice&lt;div&gt;电机设备&lt;/div&gt;" style="rounded=0;whiteSpace=wrap;html=1;" vertex="1" parent="1">
          <mxGeometry x="140" y="330" width="120" height="60" as="geometry" />
        </mxCell>
        <mxCell id="xUOIjGdvXkta8MsZSQq9-9" value="SensorDevice&lt;div&gt;传感器设备&lt;/div&gt;" style="rounded=0;whiteSpace=wrap;html=1;" vertex="1" parent="1">
          <mxGeometry x="320" y="330" width="120" height="60" as="geometry" />
        </mxCell>
        <mxCell id="xUOIjGdvXkta8MsZSQq9-10" value="ControllerDevice&lt;div&gt;控制器设备&lt;/div&gt;" style="rounded=0;whiteSpace=wrap;html=1;" vertex="1" parent="1">
          <mxGeometry x="500" y="330" width="120" height="60" as="geometry" />
        </mxCell>
        <mxCell id="xUOIjGdvXkta8MsZSQq9-11" value="" style="endArrow=classic;html=1;rounded=0;exitX=0;exitY=0.5;exitDx=0;exitDy=0;entryX=0.558;entryY=0.061;entryDx=0;entryDy=0;entryPerimeter=0;" edge="1" parent="1" source="xUOIjGdvXkta8MsZSQq9-7" target="xUOIjGdvXkta8MsZSQq9-8">
          <mxGeometry width="50" height="50" relative="1" as="geometry">
            <mxPoint x="410" y="400" as="sourcePoint" />
            <mxPoint x="250" y="320" as="targetPoint" />
          </mxGeometry>
        </mxCell>
        <mxCell id="xUOIjGdvXkta8MsZSQq9-13" value="" style="endArrow=classic;html=1;rounded=0;entryX=0.5;entryY=0;entryDx=0;entryDy=0;exitX=1.027;exitY=0.604;exitDx=0;exitDy=0;exitPerimeter=0;" edge="1" parent="1" source="xUOIjGdvXkta8MsZSQq9-7" target="xUOIjGdvXkta8MsZSQq9-10">
          <mxGeometry width="50" height="50" relative="1" as="geometry">
            <mxPoint x="410" y="400" as="sourcePoint" />
            <mxPoint x="460" y="350" as="targetPoint" />
          </mxGeometry>
        </mxCell>
        <mxCell id="xUOIjGdvXkta8MsZSQq9-15" value="" style="endArrow=classic;html=1;rounded=0;exitX=0.5;exitY=1;exitDx=0;exitDy=0;entryX=0.5;entryY=0;entryDx=0;entryDy=0;" edge="1" parent="1" source="xUOIjGdvXkta8MsZSQq9-7" target="xUOIjGdvXkta8MsZSQq9-9">
          <mxGeometry width="50" height="50" relative="1" as="geometry">
            <mxPoint x="380" y="290" as="sourcePoint" />
            <mxPoint x="380" y="330" as="targetPoint" />
          </mxGeometry>
        </mxCell>
        <mxCell id="xUOIjGdvXkta8MsZSQq9-14" value="&lt;div style=&quot;&quot;&gt;&lt;br&gt;&lt;/div&gt;" style="rounded=0;whiteSpace=wrap;html=1;align=center;opacity=40;labelPosition=center;verticalLabelPosition=bottom;verticalAlign=top;" vertex="1" parent="1">
          <mxGeometry x="120" y="190" width="520" height="220" as="geometry" />
        </mxCell>
        <mxCell id="xUOIjGdvXkta8MsZSQq9-17" value="设备模拟层" style="text;html=1;align=center;verticalAlign=middle;resizable=0;points=[];autosize=1;strokeColor=none;fillColor=none;" vertex="1" parent="1">
          <mxGeometry x="340" y="190" width="80" height="30" as="geometry" />
        </mxCell>
        <mxCell id="xUOIjGdvXkta8MsZSQq9-19" value="" style="curved=1;endArrow=classic;html=1;rounded=0;entryX=0.542;entryY=-0.033;entryDx=0;entryDy=0;entryPerimeter=0;exitX=0;exitY=0.5;exitDx=0;exitDy=0;" edge="1" parent="1" source="xUOIjGdvXkta8MsZSQq9-5" target="xUOIjGdvXkta8MsZSQq9-17">
          <mxGeometry width="50" height="50" relative="1" as="geometry">
            <mxPoint x="468.96000000000004" y="-150" as="sourcePoint" />
            <mxPoint x="229.99999999999997" y="94.76000000000022" as="targetPoint" />
            <Array as="points">
              <mxPoint x="540" y="-10" />
              <mxPoint x="520" y="130" />
            </Array>
          </mxGeometry>
        </mxCell>
        <mxCell id="xUOIjGdvXkta8MsZSQq9-20" value="&lt;h1&gt;提供配置&lt;/h1&gt;" style="edgeLabel;html=1;align=center;verticalAlign=middle;resizable=0;points=[];" vertex="1" connectable="0" parent="xUOIjGdvXkta8MsZSQq9-19">
          <mxGeometry x="0.0614" y="-5" relative="1" as="geometry">
            <mxPoint x="-59" y="-23" as="offset" />
          </mxGeometry>
        </mxCell>
        <mxCell id="xUOIjGdvXkta8MsZSQq9-21" value="" style="rounded=0;whiteSpace=wrap;html=1;textOpacity=30;" vertex="1" parent="1">
          <mxGeometry x="125" y="490" width="520" height="245" as="geometry" />
        </mxCell>
        <mxCell id="xUOIjGdvXkta8MsZSQq9-22" value="&lt;h3&gt;核心服务层&lt;/h3&gt;" style="text;html=1;align=center;verticalAlign=middle;resizable=0;points=[];autosize=1;strokeColor=none;fillColor=none;" vertex="1" parent="1">
          <mxGeometry x="340" y="475" width="90" height="60" as="geometry" />
        </mxCell>
        <mxCell id="xUOIjGdvXkta8MsZSQq9-23" value="MQTTClientWrapper&lt;div&gt;连接管理&lt;/div&gt;" style="rounded=0;whiteSpace=wrap;html=1;" vertex="1" parent="1">
          <mxGeometry x="180" y="560" width="120" height="60" as="geometry" />
        </mxCell>
        <mxCell id="xUOIjGdvXkta8MsZSQq9-24" value="DataBaseManager&lt;div&gt;数据持久化&lt;/div&gt;" style="rounded=0;whiteSpace=wrap;html=1;" vertex="1" parent="1">
          <mxGeometry x="180" y="660" width="120" height="60" as="geometry" />
        </mxCell>
        <mxCell id="xUOIjGdvXkta8MsZSQq9-25" value="" style="endArrow=classic;html=1;rounded=0;exitX=0.5;exitY=1;exitDx=0;exitDy=0;entryX=0.5;entryY=0;entryDx=0;entryDy=0;" edge="1" parent="1" source="xUOIjGdvXkta8MsZSQq9-23" target="xUOIjGdvXkta8MsZSQq9-24">
          <mxGeometry width="50" height="50" relative="1" as="geometry">
            <mxPoint x="550" y="530" as="sourcePoint" />
            <mxPoint x="600" y="480" as="targetPoint" />
          </mxGeometry>
        </mxCell>
        <mxCell id="xUOIjGdvXkta8MsZSQq9-26" value="DeviceDataProcessor&lt;div&gt;设备数据处理&lt;/div&gt;" style="rounded=0;whiteSpace=wrap;html=1;" vertex="1" parent="1">
          <mxGeometry x="400" y="660" width="120" height="60" as="geometry" />
        </mxCell>
        <mxCell id="xUOIjGdvXkta8MsZSQq9-27" value="" style="rounded=0;whiteSpace=wrap;html=1;direction=south;" vertex="1" parent="1">
          <mxGeometry x="827" y="145" width="320" height="590" as="geometry" />
        </mxCell>
        <mxCell id="xUOIjGdvXkta8MsZSQq9-28" value="&lt;h2&gt;管理层&lt;/h2&gt;" style="text;html=1;align=center;verticalAlign=middle;resizable=0;points=[];autosize=1;strokeColor=none;fillColor=none;" vertex="1" parent="1">
          <mxGeometry x="947" y="190" width="80" height="60" as="geometry" />
        </mxCell>
        <mxCell id="xUOIjGdvXkta8MsZSQq9-29" value="DeviceFactory&lt;div&gt;设备工厂&lt;/div&gt;" style="rounded=0;whiteSpace=wrap;html=1;" vertex="1" parent="1">
          <mxGeometry x="927" y="295" width="120" height="60" as="geometry" />
        </mxCell>
        <mxCell id="xUOIjGdvXkta8MsZSQq9-30" value="DeviceMananger&lt;div&gt;设备生命周期管理&lt;/div&gt;" style="rounded=0;whiteSpace=wrap;html=1;" vertex="1" parent="1">
          <mxGeometry x="927" y="415" width="120" height="60" as="geometry" />
        </mxCell>
        <mxCell id="xUOIjGdvXkta8MsZSQq9-31" value="观察者模式&lt;div&gt;监控告警&lt;/div&gt;" style="rounded=0;whiteSpace=wrap;html=1;" vertex="1" parent="1">
          <mxGeometry x="927" y="555" width="120" height="60" as="geometry" />
        </mxCell>
        <mxCell id="xUOIjGdvXkta8MsZSQq9-34" value="" style="curved=1;endArrow=classic;html=1;rounded=0;entryX=1.01;entryY=0.163;entryDx=0;entryDy=0;entryPerimeter=0;exitX=0.467;exitY=1.021;exitDx=0;exitDy=0;exitPerimeter=0;" edge="1" parent="1" source="xUOIjGdvXkta8MsZSQq9-5" target="xUOIjGdvXkta8MsZSQq9-21">
          <mxGeometry width="50" height="50" relative="1" as="geometry">
            <mxPoint x="750" y="370" as="sourcePoint" />
            <mxPoint x="800" y="320" as="targetPoint" />
            <Array as="points">
              <mxPoint x="750" y="320" />
            </Array>
          </mxGeometry>
        </mxCell>
        <mxCell id="xUOIjGdvXkta8MsZSQq9-35" value="&lt;h1&gt;提供配置&lt;/h1&gt;" style="edgeLabel;html=1;align=center;verticalAlign=middle;resizable=0;points=[];" vertex="1" connectable="0" parent="1">
          <mxGeometry x="730" y="180" as="geometry">
            <mxPoint x="-1" y="117" as="offset" />
          </mxGeometry>
        </mxCell>
        <mxCell id="xUOIjGdvXkta8MsZSQq9-36" value="&lt;h1&gt;提供配置&lt;/h1&gt;" style="edgeLabel;html=1;align=center;verticalAlign=middle;resizable=0;points=[];" vertex="1" connectable="0" parent="1">
          <mxGeometry x="1241" y="50" as="geometry">
            <mxPoint x="-1" y="117" as="offset" />
          </mxGeometry>
        </mxCell>
        <mxCell id="xUOIjGdvXkta8MsZSQq9-38" value="" style="curved=1;endArrow=classic;html=1;rounded=0;entryX=0.437;entryY=0.008;entryDx=0;entryDy=0;entryPerimeter=0;" edge="1" parent="1" target="xUOIjGdvXkta8MsZSQq9-27">
          <mxGeometry width="50" height="50" relative="1" as="geometry">
            <mxPoint x="1120" y="60" as="sourcePoint" />
            <mxPoint x="1270" y="30" as="targetPoint" />
            <Array as="points">
              <mxPoint x="1200" y="120" />
            </Array>
          </mxGeometry>
        </mxCell>
        <mxCell id="xUOIjGdvXkta8MsZSQq9-39" value="" style="endArrow=classic;html=1;rounded=0;entryX=0.556;entryY=0.25;entryDx=0;entryDy=0;entryPerimeter=0;exitX=0.519;exitY=1.014;exitDx=0;exitDy=0;exitPerimeter=0;" edge="1" parent="1" source="xUOIjGdvXkta8MsZSQq9-14" target="xUOIjGdvXkta8MsZSQq9-22">
          <mxGeometry width="50" height="50" relative="1" as="geometry">
            <mxPoint x="750" y="370" as="sourcePoint" />
            <mxPoint x="800" y="320" as="targetPoint" />
          </mxGeometry>
        </mxCell>
        <mxCell id="xUOIjGdvXkta8MsZSQq9-40" value="&lt;h2&gt;提供数据&lt;/h2&gt;" style="edgeLabel;html=1;align=center;verticalAlign=middle;resizable=0;points=[];" vertex="1" connectable="0" parent="xUOIjGdvXkta8MsZSQq9-39">
          <mxGeometry x="0.1517" relative="1" as="geometry">
            <mxPoint y="1" as="offset" />
          </mxGeometry>
        </mxCell>
        <mxCell id="xUOIjGdvXkta8MsZSQq9-41" value="调用主函数" style="rounded=0;whiteSpace=wrap;html=1;" vertex="1" parent="1">
          <mxGeometry x="1470" y="-120" width="120" height="60" as="geometry" />
        </mxCell>
        <mxCell id="xUOIjGdvXkta8MsZSQq9-42" value="配置应用信息&lt;div&gt;设置日志&lt;/div&gt;" style="whiteSpace=wrap;html=1;" vertex="1" parent="1">
          <mxGeometry x="1470" y="-15" width="120" height="60" as="geometry" />
        </mxCell>
        <mxCell id="xUOIjGdvXkta8MsZSQq9-43" value="创建设备管理器&lt;div&gt;&lt;br&gt;&lt;/div&gt;" style="whiteSpace=wrap;html=1;" vertex="1" parent="1">
          <mxGeometry x="1470" y="100" width="120" height="60" as="geometry" />
        </mxCell>
        <mxCell id="xUOIjGdvXkta8MsZSQq9-52" value="" style="edgeStyle=orthogonalEdgeStyle;rounded=0;orthogonalLoop=1;jettySize=auto;html=1;" edge="1" parent="1" source="xUOIjGdvXkta8MsZSQq9-45" target="xUOIjGdvXkta8MsZSQq9-46">
          <mxGeometry relative="1" as="geometry" />
        </mxCell>
        <mxCell id="xUOIjGdvXkta8MsZSQq9-45" value="创建设备实例&lt;div&gt;启动所有设备&lt;/div&gt;" style="whiteSpace=wrap;html=1;" vertex="1" parent="1">
          <mxGeometry x="1470" y="220" width="120" height="60" as="geometry" />
        </mxCell>
        <mxCell id="xUOIjGdvXkta8MsZSQq9-54" value="" style="edgeStyle=orthogonalEdgeStyle;rounded=0;orthogonalLoop=1;jettySize=auto;html=1;" edge="1" parent="1" source="xUOIjGdvXkta8MsZSQq9-46" target="xUOIjGdvXkta8MsZSQq9-47">
          <mxGeometry relative="1" as="geometry" />
        </mxCell>
        <mxCell id="xUOIjGdvXkta8MsZSQq9-46" value="&lt;div&gt;启动监控&lt;/div&gt;&lt;div&gt;（观察者模式）&lt;/div&gt;" style="whiteSpace=wrap;html=1;" vertex="1" parent="1">
          <mxGeometry x="1470" y="330" width="120" height="60" as="geometry" />
        </mxCell>
        <mxCell id="xUOIjGdvXkta8MsZSQq9-55" value="" style="edgeStyle=orthogonalEdgeStyle;rounded=0;orthogonalLoop=1;jettySize=auto;html=1;" edge="1" parent="1" source="xUOIjGdvXkta8MsZSQq9-47" target="xUOIjGdvXkta8MsZSQq9-48">
          <mxGeometry relative="1" as="geometry" />
        </mxCell>
        <mxCell id="xUOIjGdvXkta8MsZSQq9-47" value="等待线程完成操作" style="whiteSpace=wrap;html=1;" vertex="1" parent="1">
          <mxGeometry x="1470" y="440" width="120" height="60" as="geometry" />
        </mxCell>
        <mxCell id="xUOIjGdvXkta8MsZSQq9-48" value="关闭所有线程" style="whiteSpace=wrap;html=1;" vertex="1" parent="1">
          <mxGeometry x="1470" y="550" width="120" height="60" as="geometry" />
        </mxCell>
        <mxCell id="xUOIjGdvXkta8MsZSQq9-49" value="" style="endArrow=classic;html=1;rounded=0;exitX=0.5;exitY=1;exitDx=0;exitDy=0;entryX=0.5;entryY=0;entryDx=0;entryDy=0;" edge="1" parent="1" source="xUOIjGdvXkta8MsZSQq9-41" target="xUOIjGdvXkta8MsZSQq9-42">
          <mxGeometry width="50" height="50" relative="1" as="geometry">
            <mxPoint x="1490" y="30" as="sourcePoint" />
            <mxPoint x="1540" y="-20" as="targetPoint" />
          </mxGeometry>
        </mxCell>
        <mxCell id="xUOIjGdvXkta8MsZSQq9-50" value="" style="endArrow=classic;html=1;rounded=0;exitX=0.5;exitY=1;exitDx=0;exitDy=0;entryX=0.5;entryY=0;entryDx=0;entryDy=0;" edge="1" parent="1">
          <mxGeometry width="50" height="50" relative="1" as="geometry">
            <mxPoint x="1530" y="50" as="sourcePoint" />
            <mxPoint x="1530" y="95" as="targetPoint" />
          </mxGeometry>
        </mxCell>
        <mxCell id="xUOIjGdvXkta8MsZSQq9-51" value="" style="endArrow=classic;html=1;rounded=0;exitX=0.5;exitY=1;exitDx=0;exitDy=0;entryX=0.5;entryY=0;entryDx=0;entryDy=0;" edge="1" parent="1" source="xUOIjGdvXkta8MsZSQq9-43" target="xUOIjGdvXkta8MsZSQq9-45">
          <mxGeometry width="50" height="50" relative="1" as="geometry">
            <mxPoint x="1520" y="180" as="sourcePoint" />
            <mxPoint x="1520" y="225" as="targetPoint" />
          </mxGeometry>
        </mxCell>
        <mxCell id="xUOIjGdvXkta8MsZSQq9-57" value="模拟器流程" style="text;html=1;align=center;verticalAlign=middle;resizable=0;points=[];autosize=1;strokeColor=none;fillColor=none;" vertex="1" parent="1">
          <mxGeometry x="1490" y="-150" width="80" height="30" as="geometry" />
        </mxCell>
      </root>
    </mxGraphModel>
  </diagram>
</mxfile>
